<svg xmlns="http://www.w3.org/2000/svg" viewBox="0 0 600 600" fill="none" shape-rendering="auto" aria-hidden="true" width="512" height="512"><metadata xmlns:rdf="http://www.w3.org/1999/02/22-rdf-syntax-ns#" xmlns:xsi="http://www.w3.org/2001/XMLSchema-instance" xmlns:dc="http://purl.org/dc/elements/1.1/" xmlns:dcterms="http://purl.org/dc/terms/"><rdf:RDF><rdf:Description><dc:title>Lorelei Neutral</dc:title><dc:creator>Lisa Wischofsky</dc:creator><dc:source xsi:type="dcterms:URI">https://www.figma.com/community/file/1198749693280469639</dc:source><dcterms:license xsi:type="dcterms:URI">https://creativecommons.org/publicdomain/zero/1.0/</dcterms:license><dc:rights>Remix of “Lorelei Neutral” (https://www.figma.com/community/file/1198749693280469639) by “Lisa Wischofsky”, licensed under “CC0 1.0” (https://creativecommons.org/publicdomain/zero/1.0/)</dc:rights></rdf:Description></rdf:RDF></metadata><defs><g id="eyebrows-variant07-227ee91f"><path d="M118 28q27 2 46 18 5 3 8 8 2 4-3 5l-22-8q-12-4-24-5l-22 1q-22 6-43 16L37 73l-1-1q2-7 6-13 11-13 27-20 24-12 49-11m194 5q9 3 15 9 6 7 4 15-12-2-23-6-9-2-20-2-10-1-21 4l-13 9q-2 2-3-1-1-5 2-8 9-12 23-18 18-7 36-2" fill="#000000"/></g><g id="eyes-variant23-227ee91f"><path d="M310 10q11-3 22 3 9 6 10 16l18 3q-8 6-17 6-8 0-16-4-4-5-9-8-9-4-18-1 5 4 8 11 4 17-2 36l9-5q2 8-4 13-14 12-33 9-7 0-13-6l-2-12q-2-7 0-13a70 70 0 0 1 47-48M102 21c26 1 52 17 64 41q3 5 1 10-4-2-7-6-9-15-24-24-14-8-31-8 9 16 7 33-1 15-11 24l9 5q-9 4-19 1-17-3-29-14-14-10-19-26-23 2-43-7 3-3 8-2l28-5q6 1 11-3 24-20 55-19" fill="#000000"/></g><g id="mouth-happy14-227ee91f"><path d="M59 44q4-1 5 2-2 5-6 8-4-6 1-10m25 12q17 5 36 7l30 3q10-1 19 2-1 3-6 4-16 3-32 2-22-2-42-9-5-2-9-6 0-4 4-3" fill="#000000"/></g><g id="nose-variant04-227ee91f"><path d="M39 67a37 37 0 0 1 19 29q-1 15-13 22-9 5-18 7-4 2-8 0-2-3 1-6l21-12q5-3 5-9c0-10-5-17-7-26z" fill="#000000"/></g><clipPath id="clip-227ee91f"><rect width="600" height="600" rx="0" ry="0"/></clipPath></defs><g clip-path="url(#clip-227ee91f)"><rect width="600" height="600" fill="#ffffff"/><use transform="translate(115 124)" href="#eyebrows-variant07-227ee91f"/><use transform="translate(109 229)" href="#eyes-variant23-227ee91f"/><use transform="translate(173 400)" href="#mouth-happy14-227ee91f"/><use transform="translate(309 271)" href="#nose-variant04-227ee91f"/></g></svg>